# xmcd CD database file
#
# Track frame offsets:
#	150
#	26902
#	49762
#	85535
#	109075
#	136052
#	166912
#	193810
#	212707
#	254682
#
# Disc length: 3629 seconds
#
# Revision: 4
# Processed by: cddbd v1.5.1PL0 Copyright (c) Steve Scherf et al.
# Submitted via: CDex 1.51
#
DISCID=880e2b0a
DTITLE=陰陽座 - 百鬼繚乱
DYEAR=2000
DGENRE=Metal
TTITLE0=式を駆る者
TTITLE1=桜花ノ理
TTITLE2=塗り壁
TTITLE3=癲狂院狂人廓
TTITLE4=八咫烏
TTITLE5=歪む月
TTITLE6=帝図魔魁譚
TTITLE7=化外忍法帖
TTITLE8=奇子
TTITLE9=がいながてや
EXTD=YEAR: 2000
EXTT0=
EXTT1=
EXTT2=
EXTT3=
EXTT4=
EXTT5=
EXTT6=
EXTT7=
EXTT8=
EXTT9=
PLAYORDER=
